# xmcd
#
# Track frame offsets:
#	150
#	14271
#	29003
#	41388
#	59075
#	75029
#	91311
#	105659
#	118167
#	129588
#	142634
#	160231
#	188265
#
# Disc length: 3847 seconds
#
# Revision: 1
# Processed by: cddbd v1.5.1PL2 Copyright (c) Steve Scherf et al.
# Submitted via: EasyCDDAExtractor 5.1.0
#
DISCID=990f050d
DTITLE=Pekka Myllykoski ja Jyt‰jemmarit - Y-e-ah
DYEAR=2006
DGENRE=Country
TTITLE0=Tiimalasi
TTITLE1=Yeah!
TTITLE2=Tummaa tulta
TTITLE3=Kes‰mies
TTITLE4=Paineettomassa tilassa
TTITLE5=Jumalan huoneessa
TTITLE6=Ik‰v‰
TTITLE7=Humiseva harju
TTITLE8=L‰‰k‰ri-laulu
TTITLE9=Linjuri-blues
TTITLE10=Jokos korkataan uudestaan
TTITLE11=Yksik‰tinen rosvo
TTITLE12=Yksik‰tinen rosvo animaatio
EXTD=
EXTT0=
EXTT1=
EXTT2=
EXTT3=
EXTT4=
EXTT5=
EXTT6=
EXTT7=
EXTT8=
EXTT9=
EXTT10=
EXTT11=
EXTT12=
PLAYORDER=
